<?xml version="1.0"?>
<svg xmlns="http://www.w3.org/2000/svg" xmlns:xlink="http://www.w3.org/1999/xlink" version="1.1" id="Layer_1" x="0px" y="0px" viewBox="0 0 496 496" style="enable-background:new 0 0 496 496;" xml:space="preserve" width="512px" height="512px"><g><g>
	<g>
		<path d="M464,80H351.792c5.08-6.704,8.208-14.96,8.208-24c0-22.056-17.944-40-40-40c-11.128,0-21.192,4.584-28.448,11.944    C283.936,11.48,267.304,0,248,0c-19.304,0-35.936,11.48-43.552,27.944C197.192,20.584,187.128,16,176,16    c-22.056,0-40,17.944-40,40c0,9.04,3.128,17.296,8.208,24H32C14.352,80,0,94.352,0,112v272c0,17.648,14.352,32,32,32h90.376    L80,452.32V496h336v-43.68L373.624,416H464c17.648,0,32-14.352,32-32V112C496,94.352,481.648,80,464,80z M400,96h16v112h16V96h16    v159.712c-1.184,0.184-2.376,0.288-3.6,0.288c-4.424,0-8.696-1.24-12.4-3.52V224h-16v14.336l-16-14.768V96z M368,96h16v112.8    l-16-14.768V96z M352,96v83.264l-6.944-6.408c-2.76-2.552-5.848-4.616-9.056-6.432V96H352z M320,32c13.232,0,24,10.768,24,24    s-10.768,24-24,24s-24-10.768-24-24S306.768,32,320,32z M320,96v64.728c-2.576-0.416-5.176-0.728-7.832-0.728    c-2.776,0-5.496,0.312-8.168,0.776V96H320z M286.136,77.04c0.64,1.032,1.344,1.992,2.072,2.96h-4.528    C284.536,79.048,285.352,78.064,286.136,77.04z M288,96v70.496c-6.352,3.656-11.816,8.776-16,15.016V96H288z M248,16    c17.648,0,32,14.352,32,32s-14.352,32-32,32s-32-14.352-32-32S230.352,16,248,16z M256,96v114.552l-16,29.712V96H256z M224,96    v167.12c-1.4,0.512-2.856,0.88-4.4,0.88c-4.4,0-8.56-2.328-10.864-6.08L208,256.728V96H224z M209.864,77.04    c0.776,1.024,1.6,2.008,2.456,2.96h-4.528C208.52,79.032,209.224,78.072,209.864,77.04z M176,32c13.232,0,24,10.768,24,24    s-10.768,24-24,24s-24-10.768-24-24S162.768,32,176,32z M192,96v134.728l-16-26V96H192z M144,96h16v82.728l-1.016-1.648    c-3.688-5.984-8.92-10.552-14.984-13.48V96z M112,96h16v64.024c-5.672,0.064-11.12,1.512-16,4.032V96z M48,96h16v16h16V96h16    v84.328l-16,28.8V128H64v101.608c-2.96,1.456-6.192,2.392-9.608,2.392c-2.216,0-4.336-0.44-6.392-1.064V96z M16,112    c0-8.824,7.176-16,16-16v121.192l-16-20V112z M386.376,448H360v16h40v16H96v-16h248v-16H109.624l37.336-32h202.08L386.376,448z     M480,336h-16v16h16v32c0,8.824-7.176,16-16,16H354.96H141.04H32c-8.824,0-16-7.176-16-16v-32h432v-16H16v-32h464V336z M480,288    H16v-65.192l8.768,10.952c7.24,9.056,18.04,14.24,29.624,14.24c13.768,0,26.472-7.48,33.16-19.512l23.48-42.256    C114.528,179.92,121.184,176,128.416,176c6.96,0,13.296,3.536,16.944,9.464l49.752,80.84C200.296,274.752,209.68,280,219.6,280    c10.592,0,20.296-5.8,25.32-15.128l38.656-71.8c5.68-10.528,16.632-17.072,28.592-17.072c8.184,0,16.008,3.056,22.024,8.616    l83.264,76.856C424.824,268.256,434.384,272,444.4,272c15.136,0,28.752-8.416,35.52-21.952l0.08-0.16V288z M480,214.112    l-14.392,28.784c-0.48,0.952-1.024,1.856-1.608,2.728V96c8.824,0,16,7.176,16,16V214.112z" data-original="#000000" class="active-path" data-old_color="#000000" fill="#008000"/>
	</g>
</g></g> </svg>
