<?xml version="1.0"?>
<svg xmlns="http://www.w3.org/2000/svg" xmlns:xlink="http://www.w3.org/1999/xlink" version="1.1" id="Layer_1" x="0px" y="0px" viewBox="0 0 496 496" style="enable-background:new 0 0 496 496;" xml:space="preserve" width="512px" height="512px"><g><g>
	<g>
		<g>
			<path d="M375.504,352h30.56c24.024,0,46.608-9.352,63.592-26.344S496,286.08,496,262.056V224c0-30.88-25.128-56-56-56h-32     c0-8.824-7.176-16-16-16H104c-8.824,0-16,7.176-16,16v32v8v56c0,51.912,29.264,97.088,72.136,120H32c-17.648,0-32,14.352-32,32     s14.352,32,32,32h53.04l55.992,48h213.92l55.992-48H464c17.648,0,32-14.352,32-32s-14.352-32-32-32H335.864     C351.024,375.896,364.44,364.992,375.504,352z M408,264v-32h24v30.064c0,6.824-2.768,13.512-7.592,18.336     c-4.824,4.824-11.52,7.6-18.344,7.6h-0.312C407.144,280.192,408,272.2,408,264z M401.976,304h4.088     c11.032,0,21.84-4.48,29.664-12.288C443.52,283.904,448,273.096,448,262.064V232c0-8.824-7.176-16-16-16h-24v-8v-8v-16h32     c22.056,0,40,17.944,40,40v38.056c0,19.752-7.688,38.32-21.656,52.288C444.376,328.312,425.816,336,406.064,336h-18.896     C393.384,326.088,398.464,315.4,401.976,304z M464,400c8.824,0,16,7.176,16,16c0,8.824-7.176,16-16,16h-96v16h18.376l-37.336,32     H146.96l-37.336-32H352v-16H32c-8.824,0-16-7.176-16-16c0-8.824,7.176-16,16-16h192h48H464z M272,384h-48     c-66.168,0-120-53.832-120-120v-48h256v-16H104v-32h288v32h-16v16h16v48C392,330.168,338.168,384,272,384z" data-original="#000000" class="active-path" data-old_color="#000000" fill="#008000"/>
			<rect x="192" width="16" height="16" data-original="#000000" class="active-path" data-old_color="#000000" fill="#008000"/>
			<path d="M160,83.528c0-3.448,2.192-6.496,5.472-7.592l26.128-8.704c9.808-3.272,16.4-12.416,16.4-22.76V32h-16v12.472     c0,3.448-2.192,6.496-5.472,7.592L160.4,60.768c-9.808,3.272-16.4,12.416-16.4,22.76V128h16V83.528z" data-original="#000000" class="active-path" data-old_color="#000000" fill="#008000"/>
			<path d="M240,83.528c0-3.448,2.192-6.496,5.472-7.592l26.128-8.704c9.808-3.272,16.4-12.416,16.4-22.76V0h-16v44.472     c0,3.448-2.192,6.496-5.472,7.592L240.4,60.768c-9.808,3.272-16.4,12.416-16.4,22.76V128h16V83.528z" data-original="#000000" class="active-path" data-old_color="#000000" fill="#008000"/>
			<path d="M320,83.528c0-3.448,2.192-6.496,5.472-7.592l26.128-8.704c9.808-3.272,16.4-12.416,16.4-22.76V0h-16v44.472     c0,3.448-2.192,6.496-5.472,7.592L320.4,60.768c-9.808,3.272-16.4,12.416-16.4,22.76V96h16V83.528z" data-original="#000000" class="active-path" data-old_color="#000000" fill="#008000"/>
			<rect x="304" y="112" width="16" height="16" data-original="#000000" class="active-path" data-old_color="#000000" fill="#008000"/>
		</g>
	</g>
</g></g> </svg>
