<?xml version="1.0"?>
<svg xmlns="http://www.w3.org/2000/svg" id="Capa_1" enable-background="new 0 0 511.188 511.188" height="512px" viewBox="0 0 511.188 511.188" width="512px" class=""><g><path d="m383.005.054c-70.584 0-128.184 57.37-128.184 128.079v.201.01s0 .006 0 .01v.05c.151 70.489 57.597 127.809 128.184 127.809 70.507 0 128.033-57.244 128.184-127.809v-.27c-.001-70.691-57.581-128.08-128.184-128.08zm-97.008 143.275h38.075c1.35 26.435 6.219 52.101 14.489 72.261-27.547-14.026-47.625-40.671-52.564-72.261zm38.045-29.971h-38.115c4.83-31.771 24.957-58.595 52.634-72.682-8.32 20.271-13.199 46.096-14.519 72.682zm58.963 112.882c-7.235 0-25.693-26.33-28.896-82.911h57.803c-3.073 54.251-20.855 82.911-28.907 82.911zm-28.917-112.882c3.036-55.309 21.118-83.332 28.917-83.332 7.419 0 25.832 26.948 28.926 83.332zm73.371 102.233c8.259-20.161 13.138-45.826 14.488-72.261h38.065c-4.939 31.589-25.006 58.234-52.553 72.261zm14.518-102.233c-1.33-26.585-6.209-52.411-14.518-72.682 27.667 14.086 47.804 40.911 52.624 72.682z" data-original="#000000" class="active-path" data-old_color="#000000" fill="#9ACD32"/><path d="m394.45 305.914c-13.384-13.386-34.763-12.917-47.538-.142-14.742 14.741-48.122 48.109-48.132 48.12l-141.36-141.371c7.153-7.146 16.205-16.186 47.967-47.968 13.159-13.14 13.211-34.49.007-47.696-83.793-83.792-78.611-78.641-79.55-79.496-13.285-12.098-33.481-11.893-47.596 2.224-.196.195-25.059 24.955-25.183 25.202-104.244 102.816-39.877 226.133 63.721 329.731 98.23 98.251 216.71 164.707 320.204 72.825 6.371-5.66 36.476-35.908 38.107-37.886.025-.031.05-.061.075-.092 10.913-13.453 9.901-32.838-2.353-45.093zm-294.99-245.116c2.011-2.011 4.333-3.118 6.36-1.087l78.36 78.359c1.483 1.483 1.415 3.85-.003 5.267-7.07 7.075-11.835 11.842-15.585 15.593l-83.656-83.657c6.033-6.031 11.729-11.68 14.524-14.475zm38.54 312.509c-83.158-83.159-150.861-187.653-73.897-276.441l83.278 83.278c-5.613 5.608 1.382-1.381-13.523 13.512-10.473 10.472-10.385 27.367 0 37.729l146.055 146.065c10.404 10.405 27.334 10.405 37.743-.004 7.134-7.139 11.153-11.161 13.51-13.518l83.277 83.277c-88.497 76.729-192.763 9.8-276.443-73.898zm313.717 37.259c-4.196 4.307-11.477 11.604-15.68 15.807l-83.649-83.649 15.739-15.738c1.196-1.196 3.614-1.355 5.112.142l78.369 78.359c1.342 1.342 1.545 3.6.109 5.079z" data-original="#000000" class="active-path" data-old_color="#000000" fill="#9ACD32"/></g> </svg>
