<?xml version="1.0"?>
<svg xmlns="http://www.w3.org/2000/svg" id="Capa_1" enable-background="new 0 0 510 510" height="512px" viewBox="0 0 510 510" width="512px" class=""><g><path d="m329.17 208.34c25.24-43.01 37.55-74.74 37.55-96.62 0-61.6-50.12-111.72-111.72-111.72s-111.72 50.12-111.72 111.72c0 21.88 12.31 53.61 37.55 96.62-50.96 26.78-85.79 80.25-85.79 141.7v.27.06c.18 88.05 71.87 159.63 159.96 159.63s159.78-71.58 159.96-159.63v-.06-.27c0-61.45-34.83-114.92-85.79-141.7zm-25.61 262.25c15.187-30.372 21.582-71.273 22.92-105.28h57.58c-5.62 47.85-37.34 87.83-80.5 105.28zm-177.62-105.28h57.59c1.337 34 7.732 74.904 22.92 105.28-43.16-17.44-74.89-57.42-80.51-105.28zm129.06-335.31c45.06 0 81.72 36.66 81.72 81.72 0 37.305-60.074 124.809-81.72 154.96-21.747-30.291-81.72-117.478-81.72-154.96 0-45.06 36.66-81.72 81.72-81.72zm0 450c-14.687 0-38.4-42.365-41.45-114.69h82.91c-3.03 71.841-26.613 114.69-41.46 114.69zm41.48-144.69h-82.95c.92-22.7 3.98-44.1 8.92-62.63 11.68 16.66 20.04 27.65 20.62 28.41 6.002 7.883 17.871 7.866 23.86 0 .58-.76 8.94-11.75 20.62-28.42 4.95 18.53 8.01 39.93 8.93 62.64zm-99.93-101.32c1.57 2.45 3.12 4.87 4.67 7.25-.11.27-.22.55-.33.83-10 25.53-16.05 58.2-17.38 93.24h-57.64c5.03-44.35 32.46-82 70.68-101.32zm129.95 101.32c-1.33-35.04-7.38-67.71-17.38-93.24-.11-.28-.22-.56-.33-.84 1.54-2.38 3.1-4.79 4.66-7.24 38.22 19.32 65.65 56.97 70.68 101.32z" data-original="#000000" class="active-path" data-old_color="#000000" fill="#9ACD32"/><path d="m255 164.44c29.07 0 52.72-23.65 52.72-52.72s-23.65-52.72-52.72-52.72-52.72 23.65-52.72 52.72 23.65 52.72 52.72 52.72zm0-75.44c12.53 0 22.72 10.19 22.72 22.72s-10.19 22.72-22.72 22.72-22.72-10.19-22.72-22.72 10.19-22.72 22.72-22.72z" data-original="#000000" class="active-path" data-old_color="#000000" fill="#9ACD32"/></g> </svg>
